{"title":"Country Strong 2010 XViD BRRiP DTRG - SAFCuk009","uid":6277427,"size":1416876416,"categoryP":"video","categoryS":"movies","magnet":"?xt=urn:btih:6ee8b2e3a8e34bc4287a8b9a42313ec678090a6c&amp;dn=Country+Strong+2010+XViD+BRRiP+DTRG+-+SAFCuk009&amp;tr=udp%3A%2F%2Ftracker.openbittorrent.com%3A80&amp;tr=udp%3A%2F%2Fopen.demonii.com%3A1337&amp;tr=udp%3A%2F%2Ftracker.coppersurfer.tk%3A6969&amp;tr=udp%3A%2F%2Fexodus.desync.com%3A6969","seeders":0,"leechers":0,"uploader":"SAFCukO09","files":3,"time":1301312018,"description":"Format                           : AVI\nFormat/Info                      : Audio Video Interleave\nFile size                        : 1.32 GiB\nDuration                         : 1h 57mn\nOverall bit rate                 : 1 613 Kbps\nWriting library                  : VirtualDub build 32839/release\n\nVideo\nID                               : 0\nFormat                           : MPEG-4 Visual\nFormat profile                   : Advanced Simple@L5\nFormat settings, BVOP            : Yes\nFormat settings, QPel            : No\nFormat settings, GMC             : No warppoints\nFormat settings, Matrix          : Custom\nCodec ID                         : XVID\nCodec ID/Hint                    : XviD\nDuration                         : 1h 57mn\nBit rate                         : 1 443 Kbps\nWidth                            : 720 pixels\nHeight                           : 304 pixels\nDisplay aspect ratio             : 2.35:1\nFrame rate                       : 23.976 fps\nColor space                      : YUV\nChroma subsampling               : 4:2:0\nBit depth                        : 8 bits\nScan type                        : Progressive\nBits/(Pixel*Frame)               : 0.275\nStream size                      : 1.18 GiB (90%)\nWriting library                  : XviD 1.2.1 (UTC 2008-12-04)\n\nAudio\nID                               : 1\nFormat                           : AC-3\nFormat/Info                      : Audio Coding 3\nMode extension                   : CM (complete main)\nCodec ID                         : 2000\nDuration                         : 1h 57mn\nBit rate mode                    : Constant\nBit rate                         : 160 Kbps\nChannel(s)                       : 6 channels\nChannel positions                : Front: L C R, Side: L R, LFE\nSampling rate                    : 48.0 KHz\nBit depth                        : 16 bits\nStream size                      : 134 MiB (10%)\nAlignment                        : Split accross interleaves\nInterleave, duration             : 42 ms (1.00 video frame)\nInterleave, preload duration     : 500 ms\n\n\n\n &lt;a href=&quot;\nhttp://www.imdb.com/title/tt1555064/&quot; rel=&quot;nofollow&quot; target=&quot;_NEW&quot;&gt;\nhttp://www.imdb.com/title/tt1555064/&lt;/a&gt;\n\n\n\n\n\n\n\nStoryline\n\nA drama centered on a rising country-music songwriter (Hedlund) who sparks with a fallen star (Paltrow). Together, they mount his ascent and her comeback, which leads to romantic complications involving her husband/manager (McGraw) and a beauty queen-turned-singer (Meester).\n\n\n\n\n\n\n\n &lt;a href=&quot;\nhttp://img189.imageshack.us/img189/9056/vlcsnap2011032810h05m22.png&quot; rel=&quot;nofollow&quot; target=&quot;_NEW&quot;&gt;\nhttp://img189.imageshack.us/img189/9056/vlcsnap2011032810h05m22.png&lt;/a&gt;\n &lt;a href=&quot;\nhttp://img856.imageshack.us/img856/1016/vlcsnap2011032810h06m29.png&quot; rel=&quot;nofollow&quot; target=&quot;_NEW&quot;&gt;\nhttp://img856.imageshack.us/img856/1016/vlcsnap2011032810h06m29.png&lt;/a&gt;\n &lt;a href=&quot;\nhttp://img600.imageshack.us/img600/9513/vlcsnap2011032810h05m11.png&quot; rel=&quot;nofollow&quot; target=&quot;_NEW&quot;&gt;\nhttp://img600.imageshack.us/img600/9513/vlcsnap2011032810h05m11.png&lt;/a&gt;\n\n\nSource \n\nCountry Strong 2010 720p BluRay x264-Countrystrong ............... Thanks \n\nNot my kind of film/movie but was asked so enjoy !\n\n\n\n\nGreetz to Imagine ,Flawl3ss,DiLLoN,BDK,NOiR,TOXiCiNK,THC,Ez,Rx,\n\n\n\n\n","torrent":{"xt":"urn:btih:6ee8b2e3a8e34bc4287a8b9a42313ec678090a6c","amp;dn":"Country+Strong+2010+XViD+BRRiP+DTRG+-+SAFCuk009","amp;tr":["udp%3A%2F%2Ftracker.openbittorrent.com%3A80","udp%3A%2F%2Fopen.demonii.com%3A1337","udp%3A%2F%2Ftracker.coppersurfer.tk%3A6969","udp%3A%2F%2Fexodus.desync.com%3A6969"],"infoHash":"6ee8b2e3a8e34bc4287a8b9a42313ec678090a6c","infoHashBuffer":{"type":"Buffer","data":[110,232,178,227,168,227,75,196,40,122,139,154,66,49,62,198,120,9,10,108]},"announce":[],"urlList":[]}}